# xmcd
#
# Track frame offsets:
# 150
# 10311
# 22944
# 37061
# 49466
# 60708
# 73743
# 88060
# 99889
# 114690
# 128017
# 142033
# 154793
# 172856
# 187174
# 198564
# 212586
# 229127
# 243870
# 255899
#
# Disc length: 3599 seconds
#
#
# Revision: 1
# Processed by: cddbd v1.5.2PL0 Copyright (c) Steve Scherf et al.
# Submitted via: FreeRIP 2.96 
#
DISCID=160e0d14
DTITLE=Johnny Cash - Rainbow v/s Gone Girl
DYEAR=1900
DGENRE=Country
TTITLE0=I'm Leaving Now
TTITLE1=Here Comes That Rainbow Again
TTITLE2=They're All The Same
TTITLE3=Easy Street
TTITLE4=Have You Ever Seen The Rain
TTITLE5=You Beat All I Ever Saw
TTITLE6=Unwed Fathers
TTITLE7=Love Me Like You Used To
TTITLE8=Casey's Last Ride
TTITLE9=Borderline
TTITLE10=Gone Girl
TTITLE11=I Will Rock And Roll With You
TTITLE12=The Diplomat
TTITLE13=No Expectations
TTITLE14=It Comes And Goes
TTITLE15=It'll Be Her
TTITLE16=The Gambler
TTITLE17=Cajon Born
TTITLE18=You And Me
TTITLE19=A Song For The Life
EXTD=
EXTT0=
EXTT1=
EXTT2=
EXTT3=
EXTT4=
EXTT5=
EXTT6=
EXTT7=
EXTT8=
EXTT9=
EXTT10=
EXTT11=
EXTT12=
EXTT13=
EXTT14=
EXTT15=
EXTT16=
EXTT17=
EXTT18=
EXTT19=
PLAYORDER=
